G04 EAGLE Gerber RS-274X export*
G75*
%MOMM*%
%FSLAX34Y34*%
%LPD*%
%INSolderpaste Top*%
%IPPOS*%
%AMOC8*
5,1,8,0,0,1.08239X$1,22.5*%
G01*
%ADD10R,1.000000X1.100000*%
%ADD11R,1.100000X1.000000*%
%ADD12R,0.500000X0.700000*%
%ADD13R,1.200000X1.200000*%
%ADD14R,1.000000X2.410000*%
%ADD15R,2.410000X1.000000*%
%ADD16R,1.000000X1.800000*%
%ADD17R,1.600000X2.000000*%
%ADD18R,0.300000X1.475000*%


D10*
X171000Y1570800D03*
X171000Y1553800D03*
X171000Y1538500D03*
X171000Y1521500D03*
D11*
X254500Y1895500D03*
X237500Y1895500D03*
D10*
X192200Y1570900D03*
X192200Y1553900D03*
X150100Y1538500D03*
X150100Y1521500D03*
X125100Y1538500D03*
X125100Y1521500D03*
D11*
X171600Y1501500D03*
X188600Y1501500D03*
D12*
X162300Y1455400D03*
X162300Y1468400D03*
D13*
X213500Y1517500D03*
X213500Y1538500D03*
D14*
X218200Y1867600D03*
X204200Y1867600D03*
X190200Y1867600D03*
X176200Y1867600D03*
X162200Y1867600D03*
X148200Y1867600D03*
X134200Y1867600D03*
X218200Y1736600D03*
X204200Y1736600D03*
X190200Y1736600D03*
X176200Y1736600D03*
X162200Y1736600D03*
X148200Y1736600D03*
X134200Y1736600D03*
X113200Y1736600D03*
D15*
X254400Y1837100D03*
X254400Y1823100D03*
X254400Y1809100D03*
X254400Y1795100D03*
X254400Y1781100D03*
X254400Y1767100D03*
X254400Y1753100D03*
X254400Y1851100D03*
D14*
X232200Y1736600D03*
D16*
X149610Y1557920D03*
X124610Y1557920D03*
D10*
X174400Y1895500D03*
X191400Y1895500D03*
D11*
X192200Y1521500D03*
X192200Y1538500D03*
X139700Y1459000D03*
X139700Y1476000D03*
D10*
X153400Y1502200D03*
X136400Y1502200D03*
D11*
X213500Y1570900D03*
X213500Y1553900D03*
D17*
X255600Y1517700D03*
X255600Y1571700D03*
D18*
X79600Y1593920D03*
X84600Y1593920D03*
X89600Y1593920D03*
X94600Y1593920D03*
X99600Y1593920D03*
X104600Y1593920D03*
X109600Y1593920D03*
X114600Y1593920D03*
X119600Y1593920D03*
X124600Y1593920D03*
X129600Y1593920D03*
X134600Y1593920D03*
X139600Y1593920D03*
X144600Y1593920D03*
X149600Y1593920D03*
X154600Y1593920D03*
X159600Y1593920D03*
X164600Y1593920D03*
X169600Y1593920D03*
X174600Y1593920D03*
X179600Y1593920D03*
X184600Y1593920D03*
X189600Y1593920D03*
X194600Y1593920D03*
X194600Y1669680D03*
X189600Y1669680D03*
X184600Y1669680D03*
X179600Y1669680D03*
X174600Y1669680D03*
X169600Y1669680D03*
X164600Y1669680D03*
X159600Y1669680D03*
X154600Y1669680D03*
X149600Y1669680D03*
X144600Y1669680D03*
X139600Y1669680D03*
X134600Y1669680D03*
X129600Y1669680D03*
X124600Y1669680D03*
X119600Y1669680D03*
X114600Y1669680D03*
X109600Y1669680D03*
X104600Y1669680D03*
X99600Y1669680D03*
X94600Y1669680D03*
X89600Y1669680D03*
X84600Y1669680D03*
X79600Y1669680D03*
D11*
X250000Y1459000D03*
X250000Y1476000D03*
X50000Y1478500D03*
X50000Y1461500D03*
M02*
